<?xml version="1.0" standalone="no"?>
<!DOCTYPE svg PUBLIC "-//W3C//DTD SVG 20010904//EN"
 "http://www.w3.org/TR/2001/REC-SVG-20010904/DTD/svg10.dtd">
<svg version="1.0" xmlns="http://www.w3.org/2000/svg"
 width="1280.000000pt" height="1103.000000pt" viewBox="0 0 1280.000000 1103.000000"
 preserveAspectRatio="xMidYMid meet">
<metadata>
Created by potrace 1.15, written by Peter Selinger 2001-2017
</metadata>
<g transform="translate(0.000000,1103.000000) scale(0.100000,-0.100000)"
fill="#009688" stroke="none">
<path d="M4495 9585 c-367 -789 -666 -1437 -664 -1439 2 -1 54 1 114 5 666 47
1805 55 3325 24 291 -6 543 2 731 23 l60 7 -707 690 c-389 380 -757 738 -819
797 l-111 106 -374 -18 c-206 -10 -376 -17 -378 -16 -6 7 93 16 343 31 143 9
288 19 323 23 l63 7 -610 595 c-336 327 -615 596 -619 598 -5 1 -309 -643
-677 -1433z"/>
<path d="M7915 8129 c-202 -23 -348 -26 -955 -18 -1493 19 -2264 8 -3006 -42
l-170 -12 -417 -896 c-230 -493 -417 -899 -417 -903 0 -5 29 -8 64 -8 43 0
136 18 287 54 1442 350 3394 684 5344 916 187 22 349 41 359 43 14 1 -104 123
-429 440 l-448 437 -71 -1 c-39 -1 -102 -5 -141 -10z"/>
<path d="M9060 7119 c-41 -6 -248 -30 -460 -55 -1120 -132 -2266 -302 -3335
-495 -331 -60 -1189 -230 -1470 -292 l-150 -33 100 -7 c55 -4 144 -7 198 -7
53 0 97 -3 96 -7 0 -5 -404 -370 -898 -813 l-898 -805 216 -2 c1014 -10 1853
-40 3841 -138 1652 -81 1974 -93 2754 -102 588 -6 598 -6 587 13 -6 10 -246
406 -534 879 l-524 860 61 3 c34 1 403 -6 821 -17 418 -10 761 -17 763 -16 7
6 -1062 1040 -1077 1041 -9 1 -50 -2 -91 -7z"/>
<path d="M1728 4143 c-169 -152 -306 -278 -304 -280 1 -2 432 4 956 12 524 9
954 14 956 12 4 -4 -1211 -924 -1263 -957 -13 -8 -23 -17 -23 -20 0 -3 84 7
188 22 695 103 1460 197 1657 203 72 2 218 11 325 19 1043 83 2344 94 3610 31
342 -18 923 -53 960 -59 37 -7 -172 3 -440 19 -756 46 -1399 65 -2155 63 -397
-1 -552 -4 -445 -8 91 -4 299 -8 462 -9 163 0 397 -5 520 -11 123 -5 342 -14
488 -20 518 -21 1020 -49 1600 -90 299 -22 986 -76 1080 -85 51 -6 54 -5 35
10 -11 8 -31 26 -45 38 -14 13 -272 227 -573 476 -301 249 -546 455 -544 458
3 2 249 9 548 14 298 5 544 11 546 13 2 2 -22 47 -54 100 l-58 96 -470 0
c-814 0 -1480 22 -3555 115 -1886 85 -2797 115 -3430 114 l-265 0 -307 -276z
m7185 -1030 c-18 -2 -48 -2 -65 0 -18 2 -4 4 32 4 36 0 50 -2 33 -4z m140 -10
c-18 -2 -48 -2 -65 0 -18 2 -4 4 32 4 36 0 50 -2 33 -4z m135 -10 c-15 -2 -42
-2 -60 0 -18 2 -6 4 27 4 33 0 48 -2 33 -4z m125 -10 c-13 -2 -35 -2 -50 0
-16 2 -5 4 22 4 28 0 40 -2 28 -4z m120 -10 c-13 -2 -33 -2 -45 0 -13 2 -3 4
22 4 25 0 35 -2 23 -4z m125 -10 c-10 -2 -28 -2 -40 0 -13 2 -5 4 17 4 22 1
32 -1 23 -4z m110 -10 c-10 -2 -26 -2 -35 0 -10 3 -2 5 17 5 19 0 27 -2 18 -5z
m125 -10 c-7 -2 -21 -2 -30 0 -10 3 -4 5 12 5 17 0 24 -2 18 -5z m-186 -9 c-3
-3 -12 -4 -19 -1 -8 3 -5 6 6 6 11 1 17 -2 13 -5z"/>
<path d="M5575 3074 c-1039 -34 -1769 -88 -2640 -194 -241 -30 -1097 -150
-1123 -158 -13 -4 -423 -308 -911 -677 -643 -484 -884 -672 -872 -677 9 -3
1017 -63 2241 -133 1224 -70 2226 -128 2227 -128 0 -1 12 -249 25 -552 l23
-550 125 3 c323 9 2580 109 2586 115 4 4 -1 189 -11 412 -9 224 -15 408 -13
411 3 2 700 -36 1549 -84 l1544 -89 625 58 c344 32 726 65 850 73 124 9 278
21 344 27 65 5 120 8 122 6 5 -4 -382 -52 -546 -67 -58 -5 -217 -17 -355 -25
-274 -18 -804 -61 -875 -72 -27 -4 413 -33 1120 -74 641 -38 1169 -67 1174
-66 5 2 -81 77 -191 167 -110 91 -716 593 -1348 1115 -632 523 -1154 953
-1161 958 -14 8 -671 64 -1194 102 -543 38 -968 62 -1530 86 -237 10 -1582 20
-1785 13z"/>
<path d="M1998 2853 c12 -2 32 -2 45 0 12 2 2 4 -23 4 -25 0 -35 -2 -22 -4z"/>
</g>
</svg>
